<svg width="18" height="18" viewBox="0 0 18 18" fill="none" xmlns="http://www.w3.org/2000/svg">
<path d="M13.5001 8.99999C13.4964 8.60541 13.3374 8.22816 13.0576 7.94999L9.84006 4.72499C9.69954 4.5853 9.50945 4.5069 9.31131 4.5069C9.11317 4.5069 8.92308 4.5853 8.78256 4.72499C8.71226 4.79471 8.65647 4.87766 8.61839 4.96906C8.58032 5.06045 8.56071 5.15848 8.56071 5.25749C8.56071 5.3565 8.58032 5.45453 8.61839 5.54592C8.65647 5.63732 8.71226 5.72027 8.78256 5.78999L11.2501 8.24999H3.75006C3.55115 8.24999 3.36038 8.32901 3.21973 8.46966C3.07908 8.61031 3.00006 8.80107 3.00006 8.99999C3.00006 9.1989 3.07908 9.38966 3.21973 9.53032C3.36038 9.67097 3.55115 9.74999 3.75006 9.74999H11.2501L8.78256 12.2175C8.64133 12.3577 8.5616 12.5483 8.56089 12.7473C8.56019 12.9464 8.63858 13.1375 8.77881 13.2787C8.91904 13.42 9.10964 13.4997 9.30866 13.5004C9.50768 13.5011 9.69883 13.4227 9.84006 13.2825L13.0576 10.0575C13.3393 9.77747 13.4984 9.39717 13.5001 8.99999V8.99999Z" fill="#202727"/>
</svg>
