<svg width="14" height="14" viewBox="0 0 14 14" fill="none" xmlns="http://www.w3.org/2000/svg">
<g clip-path="url(#clip0_2_288)">
<path d="M11.7467 14C11.5309 13.9994 11.3173 13.9561 11.1184 13.8725C10.9194 13.7888 10.739 13.6666 10.5876 13.5129L7.00008 9.94642L3.41258 13.5153C3.18218 13.749 2.8867 13.9079 2.56466 13.9713C2.24262 14.0347 1.90895 13.9995 1.60717 13.8705C1.30238 13.7479 1.04165 13.5363 0.859016 13.2632C0.676382 12.9901 0.580334 12.6683 0.583415 12.3398V2.91667C0.583415 2.14312 0.890706 1.40125 1.43769 0.854272C1.98467 0.307291 2.72653 0 3.50008 0L10.5001 0C10.8831 0 11.2624 0.0754418 11.6162 0.222018C11.9701 0.368594 12.2916 0.583434 12.5625 0.854272C12.8333 1.12511 13.0482 1.44664 13.1947 1.80051C13.3413 2.15437 13.4167 2.53364 13.4167 2.91667V12.3398C13.42 12.6681 13.3243 12.9897 13.1421 13.2627C12.9599 13.5357 12.6997 13.7475 12.3953 13.8705C12.1899 13.9564 11.9694 14.0004 11.7467 14ZM3.50008 1.16667C3.03595 1.16667 2.59083 1.35104 2.26265 1.67923C1.93446 2.00742 1.75008 2.45254 1.75008 2.91667V12.3398C1.74987 12.437 1.77847 12.5321 1.83227 12.6131C1.88608 12.694 1.96266 12.7572 2.05236 12.7947C2.14206 12.8321 2.24084 12.8422 2.33624 12.8235C2.43163 12.8048 2.51936 12.7583 2.58833 12.6898L6.59175 8.71092C6.70104 8.60227 6.84889 8.54129 7.003 8.54129C7.15711 8.54129 7.30495 8.60227 7.41425 8.71092L11.413 12.6887C11.482 12.7572 11.5697 12.8037 11.6651 12.8223C11.7605 12.841 11.8593 12.831 11.949 12.7935C12.0387 12.7561 12.1153 12.6929 12.1691 12.6119C12.2229 12.531 12.2515 12.4359 12.2513 12.3387V2.91667C12.2513 2.45254 12.0669 2.00742 11.7387 1.67923C11.4105 1.35104 10.9654 1.16667 10.5013 1.16667H3.50008Z" fill="black"/>
</g>
<defs>
<clipPath id="clip0_2_288">
<rect width="14" height="14" fill="white"/>
</clipPath>
</defs>
</svg>
